<?xml version="1.0" encoding="UTF-8"?>
<!DOCTYPE svg PUBLIC "-//W3C//DTD SVG 1.1//EN" "http://www.w3.org/Graphics/SVG/1.1/DTD/svg11.dtd">
<!-- Creator: CorelDRAW -->
<svg xmlns="http://www.w3.org/2000/svg" xml:space="preserve" width="2048px" height="2048px" style="shape-rendering:geometricPrecision; text-rendering:geometricPrecision; image-rendering:optimizeQuality; fill-rule:evenodd; clip-rule:evenodd"
viewBox="0 0 2048 2048"
 xmlns:xlink="http://www.w3.org/1999/xlink">
 <defs>
  <style type="text/css">
   <![CDATA[
    .fil2 {fill:none}
    .fil3 {fill:#0A1924}
    .fil7 {fill:#213342}
    .fil6 {fill:#263C4D}
    .fil11 {fill:#3D4E5D}
    .fil1 {fill:#455A64}
    .fil0 {fill:#607D8B}
    .fil13 {fill:#87B94C}
    .fil16 {fill:#B3B3B3}
    .fil12 {fill:#D50000}
    .fil17 {fill:#E6E6E6}
    .fil14 {fill:#FFA000}
    .fil15 {fill:#FFFFFE}
    .fil5 {fill:#0A1924;fill-rule:nonzero}
    .fil4 {fill:#112230;fill-rule:nonzero}
    .fil8 {fill:#77C0FC;fill-rule:nonzero}
    .fil9 {fill:#96D0FF;fill-rule:nonzero}
    .fil10 {fill:#B2DCFF;fill-rule:nonzero}
   ]]>
  </style>
   <clipPath id="id0">
    <path d="M1024 -0.0011811c565.541,0 1024,458.461 1024,1024 0,565.541 -458.461,1024 -1024,1024 -565.541,0 -1024,-458.461 -1024,-1024 0,-565.541 458.461,-1024 1024,-1024z"/>
   </clipPath>
 </defs>
 <g id="Layer_x0020_1">
  <metadata id="CorelCorpID_0Corel-Layer"/>
  <path class="fil0" d="M1024 -0.0011811c565.541,0 1024,458.461 1024,1024 0,565.541 -458.461,1024 -1024,1024 -565.541,0 -1024,-458.461 -1024,-1024 0,-565.541 458.461,-1024 1024,-1024z"/>
  <g style="clip-path:url(#id0)">
   <g id="_452507840">
    <path id="_4525093281" class="fil1" d="M1421.53 522.649l102.169 102.169 1.82126 3.53977 1.9004 3.85748 1.83307 3.89174 1.76693 3.92599 1.70079 3.96024 1.6311 3.99213 1.56378 4.02284 1.49528 4.05355 1.42441 4.08307 1.35591 4.1126 1.05354 3.39449 -64.9087 -64.9087c-0.794883,-0.912993 -1.59685,-1.82008 -2.40827,-2.72008l-0.0389764 -0.0437008 -0.046063 -0.0507874c-0.783071,-0.868111 -1.57323,-1.73032 -2.37166,-2.58662l-0.0791339 -0.0850394 -0.0413386 -0.0437008c-0.787796,-0.843308 -1.58268,-1.67953 -2.38465,-2.51103l-0.120473 -0.125197 -0.0673229 -0.068504c-1.65827,-1.7126 -3.34607,-3.39803 -5.06575,-5.05748l-0.108662 -0.106299 -0.152362 -0.144095c-0.806694,-0.775985 -1.62047,-1.54725 -2.44134,-2.31024l-0.100394 -0.0956694 -0.140551 -0.12874c-0.840946,-0.780709 -1.6878,-1.55433 -2.54292,-2.32205l-0.0590552 -0.0543308 -0.080315 -0.0708662c-0.887009,-0.794883 -1.77992,-1.58268 -2.68229,-2.36339l-0.0283465 -0.0248032 -0.0330709 -0.0283465c-0.901182,-0.779528 -1.80945,-1.55197 -2.72481,-2.31732l-0.0791339 -0.0673229 -0.080315 -0.0661418c-0.910631,-0.759449 -1.82835,-1.51299 -2.75433,-2.25827l-0.0496063 -0.0413386 -0.0484252 -0.0389764c-0.933072,-0.751182 -1.87323,-1.49291 -2.82047,-2.22992l-0.0625985 -0.0496063 -0.0590552 -0.0448819c-0.95315,-0.739371 -1.91221,-1.47047 -2.87953,-2.19449l-0.0389764 -0.0295276 -0.0354331 -0.0259843c-0.962599,-0.720473 -1.93228,-1.43386 -2.90906,-2.1378l-0.0779528 -0.056693 -0.0755906 -0.0531496c-0.990946,-0.713386 -1.9878,-1.41851 -2.99292,-2.11654 -1.01102,-0.701575 -2.02914,-1.3937 -3.05551,-2.07992l-0.056693 -0.0389764 -0.0484252 -0.0318898c-0.98504,-0.656693 -1.97717,-1.3063 -2.9752,-1.94882l-0.133465 -0.0874016 -0.0838583 -0.0531496c-1.01811,-0.65315 -2.04331,-1.29803 -3.07559,-1.93465l-0.0425197 -0.0271654 -0.0271654 -0.0165354c-1.05118,-0.648426 -2.11063,-1.28858 -3.17599,-1.92047l-0.0413386 -0.0248032 -0.0283465 -0.0165354c-2.16851,-1.28386 -4.36418,-2.53347 -6.58938,-3.74528l-0.0531496 -0.0295276c-1.09961,-0.598819 -2.2063,-1.18819 -3.32008,-1.76929l-22.1244 42.3744 68.9221 68.9221 0.67441 1.29803 1.26496 2.54173 1.22008 2.56418 1.17638 2.5878 1.1315 2.60906 1.08543 2.62914 1.04055 2.65158 0.993308 2.67047 0.948426 2.69055 0.901182 2.70945 0.855119 2.72835 0.806694 2.74488 0.760631 2.7626 0.65315 2.54882 0.0578741 0.231496 0.0011811 0 0.0484252 0.20315 0.614174 2.59252 0.537402 2.45551 -53.9398 -53.9398c-0.512599,-0.578741 -1.02992,-1.15394 -1.55315,-1.72441l-0.0248032 -0.0271654 -0.0165354 -0.0177165c-0.509056,-0.555119 -1.02402,-1.10669 -1.54252,-1.65354l-0.0507874 -0.0531496 0 -0.0011811c-0.517323,-0.542126 -1.03819,-1.08189 -1.56496,-1.61693l-0.0779528 -0.0791339 -0.0248032 -0.0248032c-0.542126,-0.550394 -1.09016,-1.09724 -1.6441,-1.63937l-0.00472441 -0.00472441 -0.00708662 -0.00708662c-0.549213,-0.537402 -1.10079,-1.07008 -1.66063,-1.59921l-0.0377953 -0.0354331 -0.0578741 -0.0531496c-0.548032,-0.517323 -1.09961,-1.0311 -1.65827,-1.53898l-0.0200788 -0.0188977 -0.0200788 -0.0177165c-0.571654,-0.519685 -1.14685,-1.03701 -1.72795,-1.54843l-0.0188977 -0.0165354 -0.0259843 -0.022441c-0.558662,-0.491339 -1.12205,-0.976772 -1.68898,-1.45866l-0.0826772 -0.0720473 -0.0956694 -0.080315c-0.551575,-0.467717 -1.10906,-0.929528 -1.6689,-1.38898l-0.0637796 -0.0531496 -0.0590552 -0.0484252c-0.579922,-0.473622 -1.16457,-0.94252 -1.75276,-1.40669l-0.046063 -0.0366142 -0.0555119 -0.0425197c-0.591733,-0.466536 -1.18819,-0.928347 -1.78937,-1.38543l-0.0437008 -0.0330709 -0.0413386 -0.0307087c-0.581103,-0.440552 -1.16339,-0.875198 -1.75158,-1.3063l-0.124016 -0.0921261 -0.151181 -0.10748c-0.56693,-0.413386 -1.13504,-0.822048 -1.70906,-1.22717l-0.0862205 -0.0614174 -0.0649607 -0.0448819c-0.575197,-0.403937 -1.15394,-0.804331 -1.73622,-1.2l-0.173622 -0.119291 -0.125197 -0.0826772c-0.6,-0.405118 -1.20354,-0.805512 -1.81063,-1.20118l-0.068504 -0.046063 -0.0696851 -0.0448819c-1.26969,-0.825591 -2.55591,-1.6311 -3.85985,-2.41654l-0.162992 -0.0992127 -0.102756 -0.0602363c-1.34291,-0.805512 -2.70473,-1.58858 -4.08307,-2.3504l-0.0177165 -0.0106299 -0.0661418 -0.0366142c-0.667323,-0.368504 -1.34055,-0.731103 -2.01732,-1.08898l-0.0590552 -0.0318898 -0.034252 -0.0177165c-0.707481,-0.373229 -1.41969,-0.740552 -2.13543,-1.10315l-20.002 39.6555 -182.097 -182.097c-1.56378,0.814961 -3.11693,1.64291 -4.66181,2.48386 -1.5437,0.840946 -3.07796,1.69488 -4.60276,2.56181 -1.5248,0.86693 -3.04016,1.74685 -4.54489,2.63977 -1.50473,0.892914 -3,1.8 -4.48583,2.71772 -1.48465,0.917717 -2.96103,1.84961 -4.42559,2.79213 -1.46575,0.943702 -2.92087,1.89921 -4.36536,2.86654 -1.44449,0.967324 -2.87953,1.94764 -4.30394,2.93977 -1.42441,0.992127 -2.83819,1.99606 -4.24252,3.01299 -1.40433,1.01575 -2.79803,2.04449 -4.18111,3.08386 -1.38307,1.03937 -2.75551,2.09055 -4.11733,3.15355 -1.36181,1.06299 -2.71299,2.13898 -4.05355,3.22441 -1.34055,1.08543 -2.67047,2.18386 -3.98977,3.29173 -1.31929,1.10906 -2.62795,2.22756 -3.92481,3.35788 -1.29803,1.13032 -2.58425,2.27244 -3.85985,3.4252 -1.27559,1.15276 -2.54173,2.31614 -3.79488,3.49016 -1.25315,1.17402 -2.49567,2.35866 -3.72756,3.55394 -1.23189,1.19528 -2.45197,2.40118 -3.66024,3.61654 -1.20945,1.21654 -2.40709,2.44134 -3.59292,3.67796 -1.18583,1.23662 -2.36103,2.48268 -3.52441,3.73937 -1.16339,1.25669 -2.31496,2.52284 -3.45591,3.79961 -1.13976,1.27677 -2.2689,2.56181 -3.38622,3.85748 -1.11732,1.29567 -2.22402,2.60079 -3.31654,3.91536 -1.0937,1.31457 -2.17559,2.63858 -3.24567,3.97205 -1.07008,1.33347 -2.12717,2.67638 -3.17362,4.02756 -1.04646,1.35118 -2.0811,2.71181 -3.10276,4.08189 -1.02165,1.37008 -2.03268,2.74843 -3.03071,4.13504 -0.998032,1.38662 -1.98307,2.7815 -2.9563,4.18701 -0.973229,1.40433 -1.93465,2.81693 -2.88307,4.23898 -0.948426,1.42087 -1.88622,2.85118 -2.80984,4.28977 -0.923623,1.4374 -1.83543,2.88425 -2.73425,4.33819 -0.89882,1.45394 -1.78465,2.91496 -2.65866,4.38544 -0.872835,1.46929 -1.73386,2.94803 -2.58307,4.43386 -0.844489,1.47992 -1.67717,2.96693 -2.49567,4.46221 -0.819686,1.49528 -1.6252,2.99646 -2.4189,4.50591 -0.793701,1.50945 -1.57441,3.02599 -2.34213,4.54961 -0.767717,1.52362 -1.52008,3.05433 -2.26181,4.59213 -0.740552,1.5378 -1.46929,3.08386 -2.18386,4.63465 -0.714567,1.55197 -1.41732,3.10866 -2.10473,4.67363 -0.688583,1.56496 -1.36181,3.13583 -2.02323,4.71378 -0.661418,1.57795 -1.30984,3.16181 -1.9441,4.75158 -0.634252,1.58977 -1.25433,3.18662 -1.86142,4.78937 -0.607087,1.60276 -1.2,3.21142 -1.77992,4.82481 -0.579922,1.61457 -1.14567,3.23622 -1.69725,4.86142 -0.551575,1.62638 -1.09016,3.2563 -1.61339,4.89331 -0.52441,1.63701 -1.03465,3.27992 -1.53071,4.92756 -0.496063,1.64764 -0.977954,3.30118 -1.44567,4.95945 -0.467717,1.65827 -0.921261,3.32244 -1.36063,4.99016 -0.43937,1.6689 -0.864568,3.34252 -1.27559,5.02087 -0.411024,1.67835 -0.806694,3.36142 -1.18937,5.04922 -0.381496,1.6878 -0.748819,3.38032 -1.10197,5.07638 -0.35315,1.69725 -0.692127,3.39803 -1.01575,5.10355 -0.323622,1.70551 -0.633071,3.41457 -0.927166,5.12835 -0.294095,1.71378 -0.574016,3.43229 -0.838583,5.15433 -0.264567,1.72205 -0.51378,3.44764 -0.748819,5.17678 -0.23504,1.72914 -0.455906,3.46181 -0.660237,5.19922 -0.204331,1.7374 -0.394488,3.47717 -0.569292,5.22166 -0.174803,1.74331 -0.334252,3.49016 -0.478347,5.24056 -0.144095,1.7504 -0.272835,3.50433 -0.386221,5.26063 -0.113386,1.7563 -0.212599,3.51733 -0.295276,5.27953 -0.0826772,1.76339 -0.15,3.52796 -0.201969,5.29607 -0.0519685,1.76811 -0.0874016,3.53859 -0.108662,5.3126 -0.0200788,1.77284 -0.0248032,3.54922 -0.0141732,5.32678 0.0106299,1.77874 0.0366142,3.55985 0.0791339,5.34213 0.0425197,1.78228 0.100394,3.56693 0.174803,5.35394 0.068504,1.63937 0.15,3.27756 0.243307,4.91221 0.0944883,1.63465 0.20315,3.26693 0.323622,4.89685 0.120473,1.62992 0.252756,3.2563 0.400394,4.8815 0.146457,1.62402 0.305906,3.24449 0.479528,4.86378 0.172441,1.61811 0.357874,3.23622 0.5563,4.84843 0.198425,1.61339 0.409843,3.22087 0.633071,4.82835 0.22441,1.6063 0.46063,3.21024 0.709843,4.81063 0.249213,1.60039 0.511418,3.19725 0.785434,4.79055 0.274016,1.59331 0.561024,3.18307 0.861024,4.77048 0.3,1.58622 0.611811,3.1689 0.935434,4.74804 0.324803,1.57914 0.661418,3.15473 1.00984,4.72678 0.349607,1.57205 0.711024,3.14055 1.08425,4.70433 0.373229,1.56378 0.759449,3.12402 1.15748,4.67953 0.398032,1.55551 0.807875,3.10748 1.23071,4.65473 0.421654,1.54725 0.8563,3.09095 1.30276,4.62992 0.446457,1.53898 0.904725,3.07323 1.3748,4.60394 0.470079,1.52953 0.951969,3.05551 1.44685,4.57678 0.493701,1.52126 0.998032,3.03662 1.51654,4.54843 0.517323,1.51181 1.04646,3.01772 1.5874,4.52008 0.540945,1.50118 1.09252,2.99882 1.65709,4.49055 0.564567,1.49173 1.14095,2.97992 1.72795,4.46103 0.587008,1.4811 1.18465,2.95748 1.79528,4.42914 0.61063,1.47047 1.23071,2.93622 1.86378,4.39725 0.633071,1.45984 1.27677,2.91496 1.93228,4.36418 0.655512,1.44921 1.32284,2.89488 2.00079,4.33229 0.677953,1.4374 1.36536,2.87008 2.06575,4.29685 0.700394,1.42559 1.41142,2.84646 2.13307,4.26142 0.721654,1.41378 1.45512,2.82402 2.19921,4.22599 0.744095,1.40197 1.49882,2.79921 2.26536,4.18937 0.765355,1.39016 1.54252,2.77441 2.32914,4.15158 0.786615,1.37717 1.58504,2.74961 2.3941,4.11378 0.809056,1.36417 1.62756,2.72126 2.45788,4.07363 0.809056,1.31811 1.62992,2.62914 2.45906,3.93425l0.0673229 0.108662 0.0720473 0.111024c0.80315,1.26142 1.61457,2.51575 2.43662,3.76654l0.0814961 0.124016 0.0188977 0.0283465c0.849213,1.29095 1.70906,2.57362 2.57953,3.85158l0.0543308 0.0814961 0.0413386 0.0590552c0.872835,1.28032 1.75512,2.55473 2.64685,3.82087l0.0271654 0.0389764 0.0354331 0.0484252c1.81299,2.57244 3.66614,5.11654 5.55827,7.63111l0.0212599 0.0295276 0.0248032 0.0330709c0.948426,1.26024 1.9063,2.50984 2.87362,3.75473l0.0011811 0.0011811c0.949607,1.22126 1.91103,2.43543 2.87953,3.64252l0.0791339 0.100394 0.0708662 0.0874016c0.94252,1.17047 1.89213,2.33622 2.85236,3.4937l0.0956694 0.115748 0.034252 0.0401575c3.03071,3.65197 6.15,7.23308 9.35434,10.7421l0.0212599 0.0236221 0.100394 0.109843c2.11654,2.31496 4.27205,4.59922 6.463,6.84922 1.11378,1.14331 2.23583,2.27835 3.36733,3.40394 0.720473,0.715749 1.44449,1.42795 2.17323,2.13662l145.54 145.54 -236.738 0 -0.67441 0 -517.219 0c-0.49252,0 -0.982678,0.00590552 -1.47284,0.0188977 -0.490158,0.0129921 -0.977954,0.0295276 -1.46575,0.0555119 -0.487796,0.0248032 -0.973229,0.0555119 -1.45866,0.0933072 -0.484252,0.0366142 -0.968505,0.0814961 -1.45039,0.129921 -0.48189,0.0496063 -0.961418,0.103937 -1.44095,0.165354 -0.479528,0.0614174 -0.957875,0.127559 -1.43386,0.200788 -0.475985,0.0732284 -0.950788,0.151181 -1.42323,0.236221 -0.472441,0.0838583 -0.943702,0.174803 -1.41378,0.270473 -0.470079,0.0956694 -0.937796,0.198425 -1.40315,0.304725 -0.466536,0.10748 -0.930709,0.219685 -1.39252,0.337796 -0.461811,0.11811 -0.921261,0.242126 -1.38071,0.370866 -0.458268,0.129921 -0.915355,0.265748 -1.37008,0.405118 -0.454725,0.140551 -0.907087,0.284646 -1.35709,0.435827 -0.45,0.15 -0.897638,0.307087 -1.3441,0.468898 -0.445276,0.16063 -0.889371,0.328347 -1.3311,0.499607 -0.441733,0.172441 -0.881103,0.347244 -1.31811,0.530315 -0.447638,0.186614 -0.891733,0.377953 -1.33347,0.575197 -0.441733,0.197244 -0.882284,0.400394 -1.31811,0.608268 -0.435827,0.207874 -0.869292,0.421654 -1.30039,0.640158 -0.431103,0.218504 -0.858662,0.442914 -1.28268,0.672048 -0.425197,0.229134 -0.846851,0.464174 -1.26496,0.702756 -0.418111,0.239764 -0.833859,0.484252 -1.24606,0.733465 -0.412205,0.249213 -0.822048,0.504331 -1.22717,0.764174 -0.4063,0.259843 -0.809056,0.523229 -1.20827,0.79252 -0.399213,0.269292 -0.794883,0.544489 -1.18819,0.823229 -0.392126,0.27874 -0.78189,0.562205 -1.16693,0.850394 -0.38504,0.288189 -0.768898,0.581103 -1.14685,0.878741 -0.377953,0.297638 -0.753544,0.598819 -1.12441,0.905906 -0.370866,0.305906 -0.739371,0.618898 -1.10315,0.934253 -0.36378,0.315355 -0.724016,0.634252 -1.07953,0.959056 -0.355512,0.323622 -0.708662,0.65315 -1.05709,0.986221 -0.348425,0.333071 -0.692127,0.669686 -1.03347,1.01102 -0.337796,0.338977 -0.672048,0.681497 -1.00158,1.02874 -0.329528,0.347244 -0.655512,0.698032 -0.976772,1.05236 -0.32126,0.354331 -0.638977,0.712205 -0.950788,1.0748 -0.312992,0.362599 -0.62126,0.728741 -0.924804,1.09843 -0.303544,0.369685 -0.603544,0.742914 -0.89882,1.12087 -0.295276,0.376772 -0.584646,0.758268 -0.870473,1.14213 -0.285827,0.383859 -0.56693,0.77126 -0.843308,1.16221 -0.276378,0.390945 -0.548032,0.786615 -0.814961,1.18465 -0.266929,0.398032 -0.529134,0.799607 -0.786615,1.20354 -0.257481,0.405118 -0.510237,0.812599 -0.757087,1.22362 -0.246851,0.411024 -0.490158,0.825591 -0.72756,1.24252 -0.237402,0.418111 -0.470079,0.838583 -0.696851,1.26142 -0.226772,0.424016 -0.451181,0.849213 -0.667323,1.27913 -0.217323,0.42874 -0.427559,0.861024 -0.634252,1.29685 -0.206693,0.434646 -0.407481,0.872835 -0.603544,1.31339 -0.196063,0.440552 -0.386221,0.883465 -0.571654,1.32992 -0.18189,0.438189 -0.357874,0.878741 -0.530315,1.32284 -0.17126,0.442914 -0.337796,0.887009 -0.498426,1.33465 -0.16063,0.447638 -0.316536,0.896457 -0.467717,1.34882 -0.151181,0.451181 -0.296457,0.904725 -0.435827,1.36063 -0.13937,0.455906 -0.274016,0.912993 -0.403937,1.37244 -0.12874,0.459449 -0.252756,0.921261 -0.370866,1.38425 -0.11811,0.462992 -0.231496,0.929528 -0.337796,1.39606 -0.10748,0.466536 -0.209055,0.935434 -0.304725,1.40551 -0.0956694,0.470079 -0.184252,0.941339 -0.269292,1.41496 -0.0838583,0.473622 -0.164173,0.949607 -0.236221,1.42559 -0.0732284,0.475985 -0.13937,0.954331 -0.200788,1.43386 -0.0614174,0.479528 -0.115748,0.960237 -0.165354,1.44213 -0.0484252,0.48189 -0.0921261,0.966142 -0.12874,1.45039 -0.0366142,0.484252 -0.068504,0.972048 -0.0933072,1.45866 -0.0248032,0.486615 -0.0437008,0.976772 -0.0555119,1.46575 -0.0129921,0.490158 -0.0188977,0.979135 -0.0188977,1.47165l0 218.274c0,0.491339 0.00590552,0.982678 0.0188977,1.47165 0.0129921,0.490158 0.0295276,0.977954 0.0555119,1.46575 0.0248032,0.487796 0.0555119,0.973229 0.0933072,1.45866 0.0366142,0.485433 0.080315,0.968505 0.12874,1.45039 0.0496063,0.48189 0.103937,0.964961 0.165354,1.44331 0.0614174,0.479528 0.127559,0.957875 0.200788,1.43386 0.0732284,0.475985 0.151181,0.950788 0.236221,1.42441 0.0838583,0.473622 0.173622,0.946064 0.269292,1.41614 0.0956694,0.470079 0.198425,0.938977 0.304725,1.40551 0.10748,0.466536 0.219685,0.93189 0.337796,1.39488 0.11811,0.462992 0.242126,0.924804 0.370866,1.38425 0.129921,0.459449 0.264567,0.916536 0.403937,1.37244 0.140551,0.455906 0.284646,0.910631 0.435827,1.36181 0.151181,0.451181 0.307087,0.901182 0.467717,1.34764 0.16063,0.447638 0.325985,0.892914 0.498426,1.33583 0.17126,0.442914 0.348425,0.883465 0.530315,1.32284 0.185433,0.446457 0.375591,0.889371 0.571654,1.32992 0.196063,0.440552 0.396851,0.878741 0.603544,1.31339 0.206693,0.434646 0.416929,0.86693 0.634252,1.29685 0.217323,0.429922 0.440552,0.8563 0.667323,1.27913 0.226772,0.422835 0.459449,0.843308 0.696851,1.26142 0.237402,0.416929 0.479528,0.831497 0.72756,1.24252 0.246851,0.411024 0.499607,0.818505 0.757087,1.22362 0.257481,0.405118 0.519685,0.805512 0.786615,1.20354 0.266929,0.398032 0.538583,0.793701 0.814961,1.18465 0.276378,0.390945 0.558662,0.778347 0.843308,1.16221 0.285827,0.383859 0.576378,0.765355 0.870473,1.14213 0.295276,0.376772 0.595276,0.751182 0.89882,1.12087 0.303544,0.369685 0.611811,0.735827 0.924804,1.09843 0.312992,0.362599 0.629528,0.720473 0.950788,1.0748 0.320079,0.354331 0.647245,0.7063 0.976772,1.05236 0.329528,0.347244 0.662599,0.689764 1.00158,1.02874l1135.88 1135.88 1.03347 1.01102 1.05709 0.986221 1.08071 0.960237 1.10315 0.933072 1.12441 0.905906 1.14685 0.878741 1.16693 0.851575 1.18819 0.822048 1.20827 0.79252 1.22717 0.764174 1.24606 0.733465 1.26496 0.702756 1.28268 0.670867 1.30039 0.640158 1.31693 0.608268 1.33347 0.575197 1.31811 0.530315 1.3311 0.499607 1.3441 0.468898 1.35709 0.435827 1.37008 0.405118 1.38071 0.370866 1.39252 0.337796 1.40315 0.304725 1.41378 0.270473 1.42323 0.236221 1.43386 0.200788 1.44095 0.165354 1.45039 0.129921 1.45866 0.0933072 1.46575 0.0555119 1.47284 0.0188977 517.219 0 0.210236 0 517.003 0 1.47284 -0.0188977 1.46575 -0.0555119 1.45866 -0.0933072 1.45039 -0.129921 1.44213 -0.165354 1.43268 -0.200788 1.42323 -0.236221 1.41378 -0.270473 1.40433 -0.304725 1.39252 -0.337796 1.38189 -0.370866 1.3689 -0.405118 1.35827 -0.435827 1.3441 -0.468898 1.33228 -0.499607 1.31811 -0.530315 1.33347 -0.575197 1.31693 -0.608268 1.30039 -0.640158 1.28268 -0.672048 1.26496 -0.702756 1.24725 -0.733465 1.22717 -0.762993 1.20827 -0.793701 1.18819 -0.822048 1.16693 -0.850394 1.14685 -0.878741 1.12441 -0.905906 1.10315 -0.934253 1.08071 -0.959056 1.05709 -0.986221 1.03347 -1.01102 1.00158 -1.02874 0.976772 -1.05236 0.950788 -1.0748 0.924804 -1.09843 0.89882 -1.12087 0.870473 -1.14213 0.843308 -1.16221 0.814961 -1.18465 0.786615 -1.20354 0.757087 -1.22362 0.72756 -1.24252 0.696851 -1.26142 0.667323 -1.27913 0.634252 -1.29685 0.603544 -1.31339 0.571654 -1.32992 0.530315 -1.32284 0.498426 -1.33583 0.467717 -1.34764 0.435827 -1.36181 0.403937 -1.37244 0.372048 -1.38425 0.337796 -1.39488 0.303544 -1.40551 0.270473 -1.41614 0.236221 -1.42441 0.200788 -1.43386 0.164173 -1.44331 0.129921 -1.45039 0.0933072 -1.45866 0.0555119 -1.46575 0.0188977 -1.47165 0 -61.9855 0 -17.7532 0 -20.5217 0 -17.7543 0 -21.3603 0 -17.7543 0 -61.1445 -0.0188977 -1.47165 -0.0555119 -1.46575 -0.0933072 -1.45866 -0.129921 -1.45039 -0.164173 -1.44213 -0.200788 -1.43386 -0.236221 -1.42559 -0.270473 -1.41496 -0.303544 -1.40551 -0.337796 -1.39606 -0.372048 -1.38425 -0.403937 -1.37244 -0.435827 -1.36063 -0.467717 -1.34882 -0.498426 -1.33465 -0.530315 -1.32284 -0.571654 -1.32992 -0.603544 -1.31339 -0.634252 -1.29685 -0.667323 -1.27913 -0.696851 -1.26142 -0.72756 -1.24252 -0.757087 -1.22362 -0.786615 -1.20354 -0.814961 -1.18465 -0.843308 -1.16221 -0.870473 -1.14213 -0.89882 -1.12087 -0.924804 -1.09843 -0.950788 -1.0748 -0.976772 -1.05236 -1.00158 -1.02874 -123.718 -123.718 3.13819 -1.98898 4.05945 -2.66811 4.00985 -2.72953 3.95906 -2.78977 3.90827 -2.85 3.85512 -2.90788 3.80433 -2.96693 3.75 -3.02481 3.69803 -3.08032 3.6437 -3.13701 3.58937 -3.19134 3.53386 -3.24567 3.47953 -3.3 3.42284 -3.35197 3.36733 -3.40276 3.31063 -3.45473 3.25276 -3.50433 3.19488 -3.55394 3.13701 -3.60236 3.07914 -3.64961 3.0189 -3.69685 2.95866 -3.74292 2.89843 -3.78898 2.83819 -3.83268 2.77677 -3.87638 2.71536 -3.9189 2.65276 -3.96142 2.59016 -4.00158 2.52638 -4.04292 2.45788 -4.07363 2.3941 -4.11378 2.32914 -4.15158 2.26536 -4.18937 2.19921 -4.22599 2.13307 -4.26142 2.06575 -4.29803 2.00079 -4.33111 1.93228 -4.36418 1.86378 -4.39843 1.79528 -4.42914 1.72795 -4.45985 1.65709 -4.49055 1.5874 -4.52008 1.51654 -4.54961 1.44685 -4.57678 1.3748 -4.60276 1.30276 -4.62992 1.23071 -4.65591 1.15748 -4.67953 1.08425 -4.70315 1.00984 -4.72678 0.935434 -4.74922 0.861024 -4.77048 0.785434 -4.79055 0.709843 -4.81063 0.633071 -4.82835 0.5563 -4.84843 0.479528 -4.86378 0.400394 -4.8815 0.323622 -4.89685 0.243307 -4.91221 0.174803 -5.35394 0.0791339 -5.34213 -0.0141732 -5.32678 -0.108662 -5.3126 -0.201969 -5.29607 -0.295276 -5.27953 -0.386221 -5.26063 -0.478347 -5.24056 -0.569292 -5.22166 -0.660237 -5.19922 -0.748819 -5.17678 -0.838583 -5.15433 -0.927166 -5.12835 -1.01575 -5.10355 -1.10197 -5.07638 -1.18937 -5.04922 -1.27559 -5.01969 -1.36063 -4.99134 -1.44567 -4.95827 -1.53071 -4.92756 -1.61339 -4.89449 -1.69725 -4.86024 -1.77992 -4.82599 -1.86142 -4.78819 -1.9441 -4.75158 -2.02323 -4.71378 -2.10473 -4.67481 -2.18386 -4.63347 -2.26181 -4.59213 -2.34213 -4.54961 -2.4189 -4.50591 -2.49567 -4.46221 -2.58307 -4.43386 -2.65866 -4.38662 -2.73425 -4.33819 -2.80984 -4.28859 -2.88307 -4.23898 -2.9563 -4.18819 -3.03071 -4.13504 -3.10276 -4.08189 -3.17362 -4.02756 -3.24567 -3.97205 -3.31654 -3.91536 -3.38622 -3.85748 -3.45591 -3.79961 -3.52441 -3.73937 -3.59292 -3.67796 -3.66024 -3.61654 -3.72756 -3.55394 -3.79488 -3.49016 -3.85985 -3.4252 -3.92481 -3.35788 -1.08662 -0.896457 37.3299 37.3299 -1135.88 -1135.88c-1.0748,-1.29213 -2.1626,-2.57481 -3.25985,-3.84803l-0.056693 -0.0673229 -0.0330709 -0.0366142c-1.09606,-1.27087 -2.20276,-2.53229 -3.32126,-3.78425l-0.0318898 -0.0366142 -0.0200788 -0.022441c-1.10315,-1.23425 -2.21811,-2.45906 -3.3437,-3.67559l-0.0921261 -0.101575 -0.0625985 -0.0673229c-1.1126,-1.2 -2.23583,-2.39173 -3.36851,-3.57284l-0.0933072 -0.0992127 -0.0826772 -0.0850394c-1.12205,-1.16811 -2.25473,-2.32559 -3.39685,-3.47599l-0.113386 -0.116929 -0.115748 -0.114567c-1.1374,-1.14213 -2.28662,-2.27717 -3.4441,-3.40276l-0.100394 -0.0992127 -0.106299 -0.101575c-1.15984,-1.12441 -2.33032,-2.23937 -3.50906,-3.34488l-0.112205 -0.10748 -0.133465 -0.122835c-1.18583,-1.10906 -2.37992,-2.20748 -3.58465,-3.29764l-0.0767717 -0.0696851 -0.111024 -0.0980316c-1.21536,-1.09606 -2.44016,-2.18504 -3.67441,-3.26103l-0.0744095 -0.0661418 -0.11811 -0.100394c-1.25551,-1.09252 -2.52047,-2.17559 -3.79607,-3.24803l-0.0106299 -0.00944883 -0.0188977 -0.0153543c-1.31339,-1.10315 -2.6374,-2.19567 -3.97087,-3.27638 -1.32284,-1.07126 -2.6563,-2.13189 -4.0004,-3.18071l-0.0531496 -0.0425197 -0.0318898 -0.0248032c-1.31102,-1.02284 -2.63268,-2.03622 -3.9626,-3.03662l-0.122835 -0.0933072 -0.0767717 -0.056693c-1.33701,-1.00512 -2.68583,-1.99843 -4.04292,-2.98229l-0.0614174 -0.0448819 -0.0425197 -0.0307087c-1.34055,-0.969686 -2.69173,-1.92874 -4.05118,-2.87717l-0.148819 -0.105118 -0.120473 -0.0814961c-1.35,-0.938977 -2.70827,-1.86851 -4.07717,-2.78504l-0.106299 -0.0732284 -0.090945 -0.0590552c-1.37362,-0.920079 -2.7567,-1.82835 -4.1504,-2.72599l-0.124016 -0.0814961 -0.140551 -0.0885827c-1.38543,-0.891733 -2.7815,-1.77165 -4.18583,-2.64095l-0.0992127 -0.0625985 -0.112205 -0.068504c-1.40906,-0.871654 -2.82992,-1.73032 -4.25788,-2.57953l-0.115748 -0.0696851 -0.172441 -0.100394c-1.42323,-0.842127 -2.85473,-1.6748 -4.29567,-2.49449l-0.0767717 -0.0448819 -0.112205 -0.0625985c-1.43976,-0.818505 -2.88898,-1.62402 -4.34646,-2.42008l-0.144095 -0.0791339 -0.106299 -0.056693c-1.50945,-0.820867 -3.02717,-1.6311 -4.55552,-2.42717l-22.1244 42.5622z"/>
   </g>
  </g>
  <path class="fil2" d="M1024 -0.0011811c565.541,0 1024,458.461 1024,1024 0,565.541 -458.461,1024 -1024,1024 -565.541,0 -1024,-458.461 -1024,-1024 0,-565.541 458.461,-1024 1024,-1024z"/>
  <g id="_440602336">
   <path id="_441543120" class="fil3" d="M1360.15 742.088c0,13.2508 -5.3752,25.252 -14.061,33.939 -2.99646,2.99528 -6.38504,5.59725 -10.0843,7.72087l0 349.292 -23.7355 0 -0.120473 0 -24.1453 0 0 -349.462c-3.58465,-2.09291 -6.87638,-4.63465 -9.79253,-7.55079 -8.68701,-8.68701 -14.0622,-20.6882 -14.0622,-33.939 0,-13.2532 5.3752,-25.2532 14.0622,-33.939 8.68583,-8.68701 20.687,-14.0622 33.939,-14.0622l0.764174 0.00590552c12.9484,0.201969 24.6555,5.53701 33.1748,14.0563 8.68583,8.68583 14.061,20.6882 14.061,33.939z"/>
   <path id="_441531984" class="fil4" d="M1312.15 1133.04l-24.1453 0 0 -349.462c-3.58465,-2.09291 -6.87638,-4.63465 -9.79253,-7.55079 -8.68701,-8.68701 -14.0622,-20.6882 -14.0622,-33.939 0,-13.2532 5.3752,-25.2532 14.0622,-33.939 8.68583,-8.68701 20.687,-14.0622 33.9378,-14.0622l0 438.953z"/>
   <path id="_441536280" class="fil5" d="M1346.09 776.027c-2.99646,2.99528 -6.38504,5.59725 -10.0843,7.72087l0 349.292 -23.7355 0 -0.120473 0 0 -438.953 0.0011811 0 0.764174 0.00590552c12.9484,0.201969 24.6555,5.53701 33.1748,14.0563 8.68583,8.68583 14.061,20.6882 14.061,33.939 0,13.2508 -5.3752,25.252 -14.061,33.939z"/>
   <path id="_441533448" class="fil6" d="M506.781 1102.45l1034.43 0c7.87323,0 15.4677,1.61102 22.4599,4.52481 7.15512,2.97992 13.6347,7.37481 19.0819,12.8362 5.40945,5.42126 9.76654,11.8772 12.7264,19.0146 2.90788,7.01575 4.5189,14.6209 4.5189,22.4882l0 218.274c0,7.86851 -1.61102,15.4725 -4.5189,22.4894 -2.95984,7.13741 -7.31693,13.5933 -12.7264,19.0146 -5.44843,5.46024 -11.9268,9.85513 -19.0819,12.8362 -6.99331,2.91142 -14.5866,4.52363 -22.4599,4.52363l-1034.43 0c-7.87323,0 -15.4654,-1.61221 -22.4563,-4.52363 -7.15512,-2.97992 -13.6311,-7.37481 -19.0807,-12.8362 -5.40945,-5.42126 -9.76654,-11.8772 -12.7264,-19.0146 -2.90788,-7.01693 -4.51772,-14.6209 -4.51772,-22.4894l0 -218.274c0,-7.86733 1.60984,-15.4725 4.51772,-22.4882 2.95984,-7.13741 7.31693,-13.5933 12.7264,-19.0146 5.44725,-5.46024 11.9244,-9.85631 19.0807,-12.8374 6.99095,-2.91142 14.5831,-4.52363 22.4563,-4.52363z"/>
   <path id="_441541152" class="fil7" d="M1024 1102.45l0.67441 0 516.539 0c7.87323,0 15.4677,1.61102 22.4599,4.52481 7.15512,2.97992 13.6347,7.37481 19.0819,12.8362 5.40945,5.42126 9.76654,11.8772 12.7264,19.0146 2.90788,7.01575 4.5189,14.6209 4.5189,22.4882l0 218.274c0,7.86851 -1.61102,15.4725 -4.5189,22.4894 -2.95984,7.13741 -7.31693,13.5933 -12.7264,19.0146 -5.44843,5.46024 -11.9268,9.85513 -19.0819,12.8362 -6.99331,2.91142 -14.5866,4.52363 -22.4599,4.52363l-517.003 0 -0.210236 0 0 -336.001z"/>
   <path id="_441527592" class="fil8" d="M1262.53 665.102c-14.9327,7.54725 -26.9268,19.05 -34.9949,32.8323 -8.06812,13.7811 -12.2386,29.9209 -11.5264,46.7457 0.662599,15.6921 5.63504,30.7276 14.0079,43.7032 8.31733,12.8894 20.0563,23.6705 34.3181,30.9496l-21.75 42.75c-21.8882,-11.1721 -39.9815,-27.8339 -52.8804,-47.8241 -12.8386,-19.898 -20.4732,-43.1823 -21.5091,-67.7044 -1.10197,-26.0587 5.44252,-51.2032 18.0898,-72.8091 12.6555,-21.6189 31.3996,-39.6248 54.6827,-51.3933l21.5622 42.75z"/>
   <path id="_441555552" class="fil9" d="M1231.18 596.635c-27.991,14.6032 -50.4402,36.5563 -65.5406,62.739 -15.1158,26.2075 -22.904,56.7225 -21.5634,88.4233 1.23307,29.1544 10.2118,57.1028 25.389,81.3615 15.1642,24.2386 36.4796,44.6729 62.3977,58.8248l-22.8756 42.0012c-33.3839,-18.2291 -60.7819,-44.4579 -80.2099,-75.5127 -19.4173,-31.0394 -30.9177,-67.0312 -32.5146,-104.8 -1.72441,-40.7894 8.36575,-80.1733 27.9402,-114.111 19.5898,-33.965 48.6532,-62.4142 84.8528,-81.3001l22.1244 42.3744z"/>
   <path id="_441525912" class="fil10" d="M1203.06 522.561c-41.7863,21.7713 -75.3225,54.8209 -97.8957,94.3548 -22.7055,39.7666 -34.428,86.1012 -32.4319,134.172 1.82953,44.0563 15.0992,86.2064 37.5225,122.719 22.3618,36.4111 53.8347,67.1315 92.139,88.4398l-23.25 41.8122c-45.6579,-25.3984 -83.1509,-61.9796 -109.765,-105.314 -26.5583,-43.2461 -42.2811,-93.3131 -44.4603,-145.782 -2.37402,-57.1796 11.5854,-112.322 38.6209,-159.672 27.1429,-47.537 67.3642,-87.2233 117.396,-113.291l22.1244 42.5622z"/>
   <path id="_441529728" class="fil8" d="M1383.04 622.44c23.2843,11.7673 42.026,29.7744 54.6827,51.3922 12.6473,21.6071 19.1906,46.7504 18.0886,72.8091 -1.03583,24.5221 -8.67048,47.8052 -21.5079,67.7044 -12.8988,19.9902 -30.9933,36.652 -52.8804,47.8241l-21.7512 -42.75c14.2618,-7.27914 26.002,-18.0603 34.3193,-30.9484 8.37166,-12.9768 13.3441,-28.0122 14.0067,-43.7044 0.712205,-16.8248 -3.45827,-32.9646 -11.5252,-46.7457 -8.06812,-13.7823 -20.0622,-25.2839 -34.9949,-32.8311l21.5622 -42.75z"/>
   <path id="_441534312" class="fil9" d="M1414.94 554.35c36.1996,18.8858 65.263,47.3351 84.8528,81.3001 19.5744,33.9378 29.6646,73.3217 27.939,114.11 -1.59685,37.7693 -13.0949,73.7611 -32.5134,104.8 -19.428,31.0536 -46.8248,57.2835 -80.2099,75.5127l-22.8756 -42c25.9193,-14.1532 47.2347,-34.5886 62.3977,-58.8248 15.176,-24.2599 24.1547,-52.2071 25.3878,-81.3627 1.34055,-31.6996 -6.44764,-62.2158 -21.5622,-88.4233 -15.1004,-26.1827 -37.5496,-48.1347 -65.5406,-62.7378l22.1244 -42.3744z"/>
   <path id="_441539304" class="fil10" d="M1443.65 480.087c50.0315,26.0681 90.2528,65.7544 117.396,113.293 27.0355,47.3492 40.9949,102.491 38.6209,159.671 -2.17914,52.4693 -17.902,102.537 -44.4603,145.784 -26.6126,43.3347 -64.1067,79.9146 -109.765,105.313l-23.2488 -41.8122c38.3032,-21.3071 69.7772,-52.0276 92.139,-88.4387 22.4221,-36.5126 35.6918,-78.6638 37.5213,-122.72 1.99606,-48.0709 -9.72639,-94.4056 -32.4319,-134.172 -22.5721,-39.5339 -56.1095,-72.5835 -97.8957,-94.3548l22.1244 -42.5622z"/>
   <path id="_441549432" class="fil11" d="M723.152 1222.45l756.847 0 0 96.0001 -756.847 0c-4.15985,7.19528 -9.2752,13.8839 -15.2717,19.8803 -18.0449,18.0449 -42.3532,28.1197 -67.878,28.1197 -25.526,0 -49.8343,-10.0748 -67.8804,-28.1197 -18.0449,-18.0461 -28.1197,-42.3555 -28.1197,-67.8804 0,-25.5248 10.0748,-49.8343 28.1197,-67.8792 18.0449,-18.0461 42.3544,-28.1197 67.8804,-28.1197 25.5248,0 49.8331,10.0736 67.8792,28.1185 5.99646,5.99646 11.1106,12.6862 15.2705,19.8803z"/>
   <polygon id="_441539568" class="fil12" points="1360,1246.45 1456,1246.45 1456,1294.45 1360,1294.45 "/>
   <polygon id="_441546504" class="fil13" points="1024,1246.45 1120,1246.45 1120,1294.45 1024,1294.45 "/>
   <polygon id="_441537000" class="fil14" points="1192,1246.45 1288,1246.45 1288,1294.45 1192,1294.45 "/>
   <path id="_441547464" class="fil15" d="M640.002 1198.45c19.878,0 37.8792,8.06103 50.9091,21.091 13.0288,13.0299 21.0898,31.0299 21.0898,50.9091 0,19.8803 -8.06103,37.8803 -21.0898,50.9091 -13.0299,13.0299 -31.0311,21.091 -50.9091,21.091 -19.8803,0 -37.8815,-8.06103 -50.9103,-21.091 -13.0288,-13.0288 -21.0898,-31.0288 -21.0898,-50.9091 0,-19.8791 8.06103,-37.8792 21.0898,-50.9091 13.0288,-13.0299 31.0299,-21.091 50.9103,-21.091z"/>
   <path id="_440581456" class="fil16" d="M640.002 1256.62c3.81733,0 7.2756,1.54843 9.77835,4.05118 2.50276,2.50276 4.05118,5.95985 4.05118,9.77835 0,3.81851 -1.54843,7.2756 -4.05118,9.77835 -2.50276,2.50276 -5.96103,4.05118 -9.77835,4.05118 -3.81851,0 -7.27678,-1.54843 -9.77954,-4.05118 -2.50158,-2.50276 -4.05,-5.95985 -4.05,-9.77835 0,-3.81851 1.54843,-7.2756 4.05,-9.77835 2.50276,-2.50276 5.96103,-4.05118 9.77954,-4.05118z"/>
   <rect id="_440605240" class="fil17" x="1505.66" y="1222.46" width="94.3359" height="17.7537"/>
   <rect id="_440609032" class="fil17" x="1505.66" y="1261.58" width="94.3359" height="17.7537"/>
   <rect id="_440589664" class="fil17" x="1505.66" y="1299.85" width="94.3359" height="17.7537"/>
  </g>
 </g>
</svg>
